# WaveFront *.obj file (generated by Autodesk ATF)

mtllib aa9f782a-b41f-4534-afab-7690ba5eb32e.mtl

g Body1

v 172.000000 0.000000 189.000000
v -0.000000 0.000000 189.000000
v 0.000000 0.000000 0.000000
v 172.000000 0.000000 0.000000
v 111.000000 0.000000 130.000000
v 111.000000 0.000000 100.000000
v 61.000000 0.000000 100.000000
v 61.000000 0.000000 130.000000
v -0.000000 5.000000 189.000000
v 0.000000 5.000000 0.000000
v 172.000000 5.000000 0.000000
v 61.000000 5.000000 130.000000
v 111.000000 5.000000 130.000000
v 61.000000 5.000000 100.000000
v 111.000000 5.000000 100.000000
v 172.000000 5.000000 189.000000
vt 8.500000 -0.100000 0.000000
vt -2.600000 5.800000 0.000000
vt -8.700000 -0.100000 0.000000
vt -2.600000 8.800000 0.000000
vt -8.700000 18.800000 0.000000
vt 2.400000 8.800000 0.000000
vt 8.500000 18.800000 0.000000
vt 2.400000 5.800000 0.000000
vt 18.900000 0.500000 0.000000
vt 0.000000 0.500000 0.000000
vt 18.900000 0.000000 0.000000
vt 0.000000 0.000000 0.000000
vt -0.200000 0.000000 0.000000
vt 17.000000 0.000000 0.000000
vt -0.200000 0.500000 0.000000
vt 17.000000 0.500000 0.000000
vt -5.000000 0.000000 0.000000
vt -0.000000 0.000000 0.000000
vt -5.000000 0.500000 0.000000
vt -0.000000 0.500000 0.000000
vt -3.000000 0.000000 0.000000
vt -0.000000 0.000000 0.000000
vt -3.000000 0.500000 0.000000
vt -0.000000 0.500000 0.000000
vt -5.000000 0.000000 0.000000
vt -0.000000 0.000000 0.000000
vt -5.000000 0.500000 0.000000
vt -0.000000 0.500000 0.000000
vt -3.000000 0.000000 0.000000
vt -0.000000 0.000000 0.000000
vt -3.000000 0.500000 0.000000
vt -0.000000 0.500000 0.000000
vt 18.700000 0.000000 0.000000
vt 37.600000 0.000000 0.000000
vt 18.700000 0.500000 0.000000
vt 37.600000 0.500000 0.000000
vt 0.100000 8.700000 0.000000
vt -5.800000 2.600000 0.000000
vt 0.100000 -8.500000 0.000000
vt -5.800000 -2.400000 0.000000
vt -8.800000 -2.400000 0.000000
vt -8.800000 2.600000 0.000000
vt -18.800000 8.700000 0.000000
vt -18.800000 -8.500000 0.000000
vt 8.600000 0.250000 0.000000
vt -8.600000 0.250000 0.000000
vt 8.600000 -0.250000 0.000000
vt -8.600000 -0.250000 0.000000
vn 0.000000 -0.100000 0.000000
vn 0.000000 -0.100000 0.000000
vn 0.000000 -0.100000 0.000000
vn 0.000000 -0.100000 0.000000
vn 0.000000 -0.100000 0.000000
vn 0.000000 -0.100000 0.000000
vn 0.000000 -0.100000 0.000000
vn 0.000000 -0.100000 0.000000
vn -0.100000 0.000000 -0.000000
vn -0.100000 0.000000 -0.000000
vn -0.100000 0.000000 -0.000000
vn -0.100000 0.000000 -0.000000
vn 0.000000 0.000000 -0.100000
vn 0.000000 0.000000 -0.100000
vn 0.000000 0.000000 -0.100000
vn 0.000000 0.000000 -0.100000
vn 0.000000 0.000000 -0.100000
vn 0.000000 0.000000 -0.100000
vn 0.000000 0.000000 -0.100000
vn 0.000000 0.000000 -0.100000
vn 0.100000 0.000000 0.000000
vn 0.100000 0.000000 0.000000
vn 0.100000 0.000000 0.000000
vn 0.100000 0.000000 0.000000
vn 0.000000 0.000000 0.100000
vn 0.000000 0.000000 0.100000
vn 0.000000 0.000000 0.100000
vn 0.000000 0.000000 0.100000
vn -0.100000 0.000000 0.000000
vn -0.100000 0.000000 0.000000
vn -0.100000 0.000000 0.000000
vn -0.100000 0.000000 0.000000
vn 0.100000 0.000000 0.000000
vn 0.100000 0.000000 0.000000
vn 0.100000 0.000000 0.000000
vn 0.100000 0.000000 0.000000
vn 0.000000 0.100000 0.000000
vn 0.000000 0.100000 0.000000
vn 0.000000 0.100000 0.000000
vn 0.000000 0.100000 0.000000
vn 0.000000 0.100000 0.000000
vn 0.000000 0.100000 0.000000
vn 0.000000 0.100000 0.000000
vn 0.000000 0.100000 0.000000
vn 0.000000 0.000000 0.100000
vn 0.000000 0.000000 0.100000
vn 0.000000 0.000000 0.100000
vn 0.000000 0.000000 0.100000
usemtl Steel_-_Satin
f 2/1/1 5/2/2 1/3/3
f 1/3/3 5/2/2 6/4/4
f 1/3/3 6/4/4 4/5/5
f 4/5/5 6/4/4 7/6/6
f 4/5/5 7/6/6 3/7/7
f 3/7/7 7/6/6 2/1/1
f 2/1/1 7/6/6 8/8/8
f 2/1/1 8/8/8 5/2/2
f 9/9/9 10/10/10 2/11/11
f 2/11/11 10/10/10 3/12/12
f 4/13/13 3/14/14 11/15/15
f 11/15/15 3/14/14 10/16/16
f 12/17/17 13/18/18 8/19/19
f 8/19/19 13/18/18 5/20/20
f 14/21/21 12/22/22 7/23/23
f 7/23/23 12/22/22 8/24/24
f 15/25/25 14/26/26 6/27/27
f 6/27/27 14/26/26 7/28/28
f 13/29/29 15/30/30 5/31/31
f 5/31/31 15/30/30 6/32/32
f 1/33/33 4/34/34 16/35/35
f 16/35/35 4/34/34 11/36/36
f 16/37/37 13/38/38 9/39/39
f 9/39/39 13/38/38 12/40/40
f 9/39/39 12/40/40 14/41/41
f 13/38/38 16/37/37 15/42/42
f 15/42/42 16/37/37 11/43/43
f 15/42/42 11/43/43 10/44/44
f 15/42/42 10/44/44 14/41/41
f 14/41/41 10/44/44 9/39/39
f 16/45/45 9/46/46 1/47/47
f 1/47/47 9/46/46 2/48/48
# 16 vertices
# 48 texture params
# 48 normals
# 32 facets

# 1 groups
